#N canvas 418 373 918 623 10;
#X obj 587 232 outlet;
#X obj 443 10 average 20;
#X obj 292 240 s reset;
#X obj 528 44 average 20;
#X obj 609 70 average 20;
#X obj 648 232 outlet;
#X obj 237 240 t b b b;
#X text 79 65 Inicializar;
#X text 175 66 Reset;
#X text 109 128 x;
#X text 147 128 y;
#X text 129 103 aclerómetro;
#X text 180 128 z;
#X obj 443 -12 spigot;
#X obj 528 23 spigot;
#X obj 609 49 spigot;
#X obj 102 102 tgl 24 0 empty empty empty 17 7 0 10 -262144 -1 -1 1
1;
#X obj 102 240 t b b b;
#X obj 106 356 s arduino_msg;
#X obj 102 170 route 0 1;
#X obj 710 232 outlet;
#X obj 402 240 delay 1;
#X msg 343 240 reset 20;
#X obj 587 188 calibrar_acelerometro;
#X msg 169 272 analogIns 2 0;
#X msg 169 295 analogIns 3 0;
#X msg 169 318 analogIns 4 0;
#X msg 304 272 analogIns 2 1;
#X msg 304 295 analogIns 3 1;
#X msg 304 318 analogIns 4 1;
#X obj 443 -73 r arduino_a2;
#X obj 528 -39 r arduino_a3;
#X obj 609 -13 r arduino_a4;
#X msg 402 263 1;
#X obj 102 216 delay 1;
#X msg 155 217 0;
#X connect 1 0 23 0;
#X connect 3 0 23 1;
#X connect 4 0 23 2;
#X connect 6 0 29 0;
#X connect 6 1 28 0;
#X connect 6 2 27 0;
#X connect 13 0 1 0;
#X connect 14 0 3 0;
#X connect 15 0 4 0;
#X connect 16 0 19 0;
#X connect 17 0 26 0;
#X connect 17 1 25 0;
#X connect 17 2 24 0;
#X connect 19 0 34 0;
#X connect 19 0 35 0;
#X connect 19 1 6 0;
#X connect 19 1 2 0;
#X connect 19 1 22 0;
#X connect 19 1 21 0;
#X connect 21 0 33 0;
#X connect 22 0 1 0;
#X connect 22 0 3 0;
#X connect 22 0 4 0;
#X connect 23 0 0 0;
#X connect 23 1 5 0;
#X connect 23 2 20 0;
#X connect 24 0 18 0;
#X connect 25 0 18 0;
#X connect 26 0 18 0;
#X connect 27 0 18 0;
#X connect 28 0 18 0;
#X connect 29 0 18 0;
#X connect 30 0 13 0;
#X connect 31 0 14 0;
#X connect 32 0 15 0;
#X connect 33 0 13 1;
#X connect 33 0 14 1;
#X connect 33 0 15 1;
#X connect 34 0 17 0;
#X connect 35 0 13 1;
#X connect 35 0 14 1;
#X connect 35 0 15 1;
#X coords 0 -1 1 1 103 46 2 100 100;
