#N canvas 725 318 514 546 10;
#X text 81 84 Inicializar;
#X obj 130 100 hsl 200 24 0 1 0 0 empty empty analog_imput_\$1 46 13
1 14 -262144 -1 -1 0 0;
#X text 188 84 Deslizador;
#X obj 127 10 spigot;
#X obj 100 100 tgl 24 0 empty empty empty 17 7 0 10 -262144 -1 -1 0
1;
#X obj 235 -112 route 0 1;
#X obj 119 234 s arduino_msg;
#X obj 136 135 outlet;
#X obj 127 39 average 10;
#X obj 217 -51 delay 1;
#X msg 260 -21 reset 10;
#X msg 217 -25 1;
#X msg 187 -51 0;
#X obj 63 -26 r arduino_a\$1;
#X msg 119 208 analogIns \$1 \$2;
#X obj 281 235 print;
#X msg 340 -11 bang;
#X obj 119 184 pack \$1 f;
#X obj 100 160 t f b f;
#X connect 1 0 7 0;
#X connect 3 0 8 0;
#X connect 4 0 18 0;
#X connect 5 0 12 0;
#X connect 5 1 10 0;
#X connect 5 1 9 0;
#X connect 8 0 1 0;
#X connect 9 0 11 0;
#X connect 10 0 8 0;
#X connect 11 0 3 1;
#X connect 12 0 3 1;
#X connect 13 0 3 0;
#X connect 14 0 15 0;
#X connect 14 0 6 0;
#X connect 17 0 14 0;
#X connect 18 0 5 0;
#X connect 18 1 17 0;
#X connect 18 2 17 1;
#X coords 0 -1 1 1 232 24 2 100 100;
