#N canvas 837 250 717 764 10;
#X obj 460 37 save_num;
#X obj 53 54 s acx;
#X obj 53 7 inlet;
#X floatatom 91 54 5 0 0 0 - - -;
#X obj 128 6 inlet;
#X floatatom 166 53 5 0 0 0 - - -;
#X obj 128 53 s acy;
#X obj 201 4 inlet;
#X floatatom 239 51 5 0 0 0 - - -;
#X obj 201 51 s acz;
#X obj 460 72 s acx01;
#X obj 536 72 s acy01;
#X obj 613 72 s aczmax;
#X obj 462 155 s acx02;
#X obj 538 155 s acy02;
#X obj 615 155 s aczmin;
#X obj 464 236 s acxmax;
#X obj 540 236 s acy03;
#X obj 617 236 s acz01;
#X obj 464 321 s acxmin;
#X obj 540 321 s acy04;
#X obj 617 321 s acz02;
#X obj 465 408 s acx03;
#X obj 466 493 s acx04;
#X obj 541 408 s acymax;
#X obj 542 493 s acymin;
#X obj 618 408 s acz03;
#X obj 619 493 s acz04;
#X obj 43 315 moses;
#X obj 30 224 average 4;
#X obj 50 103 r acx01;
#X obj 63 123 r acx02;
#X obj 77 143 r acx03;
#X obj 91 163 r acx04;
#X obj 135 226 average 4;
#X obj 155 105 r acy01;
#X obj 168 125 r acy02;
#X obj 182 145 r acy03;
#X obj 196 165 r acy04;
#X obj 241 225 average 4;
#X obj 261 104 r acz01;
#X obj 274 124 r acz02;
#X obj 288 144 r acz03;
#X obj 302 164 r acz04;
#X obj 30 250 s acx0;
#X obj 135 250 s acy0;
#X floatatom 78 252 5 0 0 0 - - -;
#X floatatom 184 250 5 0 0 0 - - -;
#X floatatom 286 250 5 0 0 0 - - -;
#X obj 241 249 s acz0;
#X obj 70 280 r acx0;
#X obj 116 316 r acxmin;
#X obj 300 316 r acxmax;
#X obj 30 280 r acx;
#X floatatom 185 403 5 0 0 0 - - -;
#X obj 41 451 moses;
#X floatatom 183 539 5 0 0 0 - - -;
#X obj 28 416 r acy;
#X obj 68 416 r acy0;
#X obj 114 452 r acymin;
#X obj 303 452 r acymax;
#X obj 46 598 moses;
#X floatatom 188 686 5 0 0 0 - - -;
#X obj 33 563 r acz;
#X obj 73 563 r acz0;
#X obj 119 599 r aczmin;
#X obj 306 599 r aczmax;
#X obj 140 404 outlet;
#X obj 138 540 outlet;
#X obj 143 687 outlet;
#X text 432 587 nas que o acelerometro debería;
#X text 433 618 devolver +1g e -1g en cada un;
#X text 435 650 dos seus 3 eixos;
#X text 431 557 Calibrar gardando as 6 posicións;
#X text 413 41 a +1g z;
#X text 415 123 b -1g z;
#X text 416 204 c +1g x;
#X text 414 289 d -1g x;
#X text 417 376 e +1g y;
#X text 417 461 f -1g y;
#X obj 138 516 clip -1 1;
#X obj 140 379 clip -1 1;
#X obj 143 664 clip -1 1;
#X text 222 404 acx normalizado (de -1 a 1);
#X text 220 540 acy normalizado (de -1 a 1);
#X text 225 687 acz normalizado (de -1 a 1);
#X obj 230 349 expr ($f1-$f3)/($f2-$f3);
#X obj 233 485 expr ($f1-$f3)/($f2-$f3);
#X obj 236 632 expr ($f1-$f3)/($f2-$f3);
#X obj 43 349 expr (-1)*($f1-$f3)/($f2-$f3);
#X obj 41 485 expr (-1)*($f1-$f3)/($f2-$f3);
#X obj 46 632 expr (-1)*($f1-$f3)/($f2-$f3);
#X obj 462 120 save_num;
#X obj 464 201 save_num;
#X obj 464 286 save_num;
#X obj 465 373 save_num;
#X obj 466 458 save_num;
#X msg 501 16 0.323;
#X msg 544 180 0.338;
#X msg 462 99 0.325;
#X msg 502 99 0.323;
#X msg 504 180 0.323;
#X msg 505 265 0.323;
#X msg 460 16 0.325;
#X msg 466 437 0.325;
#X msg 465 352 0.325;
#X msg 546 265 0.338;
#X msg 547 352 0.338;
#X msg 548 437 0.338;
#X msg 542 16 0.403;
#X msg 543 99 0.273;
#X msg 464 180 0.392;
#X msg 464 265 0.258;
#X msg 507 437 0.256;
#X msg 506 352 0.39;
#X obj 388 -1 loadbang;
#X obj 390 82 loadbang;
#X obj 390 163 loadbang;
#X obj 392 248 loadbang;
#X obj 392 335 loadbang;
#X obj 394 420 loadbang;
#X connect 0 0 10 0;
#X connect 0 1 11 0;
#X connect 0 2 12 0;
#X connect 2 0 1 0;
#X connect 2 0 3 0;
#X connect 4 0 5 0;
#X connect 4 0 6 0;
#X connect 7 0 8 0;
#X connect 7 0 9 0;
#X connect 28 0 89 0;
#X connect 28 1 86 0;
#X connect 29 0 44 0;
#X connect 29 0 46 0;
#X connect 30 0 29 0;
#X connect 31 0 29 0;
#X connect 32 0 29 0;
#X connect 33 0 29 0;
#X connect 34 0 45 0;
#X connect 34 0 47 0;
#X connect 35 0 34 0;
#X connect 36 0 34 0;
#X connect 37 0 34 0;
#X connect 38 0 34 0;
#X connect 39 0 48 0;
#X connect 39 0 49 0;
#X connect 40 0 39 0;
#X connect 41 0 39 0;
#X connect 42 0 39 0;
#X connect 43 0 39 0;
#X connect 50 0 28 1;
#X connect 50 0 86 2;
#X connect 50 0 89 2;
#X connect 51 0 89 1;
#X connect 52 0 86 1;
#X connect 53 0 28 0;
#X connect 55 0 90 0;
#X connect 55 1 87 0;
#X connect 57 0 55 0;
#X connect 58 0 55 1;
#X connect 58 0 87 2;
#X connect 58 0 90 2;
#X connect 59 0 90 1;
#X connect 60 0 87 1;
#X connect 61 0 91 0;
#X connect 61 1 88 0;
#X connect 63 0 61 0;
#X connect 64 0 61 1;
#X connect 64 0 88 2;
#X connect 64 0 91 2;
#X connect 65 0 91 1;
#X connect 66 0 88 1;
#X connect 80 0 56 0;
#X connect 80 0 68 0;
#X connect 81 0 67 0;
#X connect 81 0 54 0;
#X connect 82 0 69 0;
#X connect 82 0 62 0;
#X connect 86 0 81 0;
#X connect 87 0 80 0;
#X connect 88 0 82 0;
#X connect 89 0 81 0;
#X connect 90 0 80 0;
#X connect 91 0 82 0;
#X connect 92 0 13 0;
#X connect 92 1 14 0;
#X connect 92 2 15 0;
#X connect 93 0 16 0;
#X connect 93 1 17 0;
#X connect 93 2 18 0;
#X connect 94 0 19 0;
#X connect 94 1 20 0;
#X connect 94 2 21 0;
#X connect 95 0 22 0;
#X connect 95 1 24 0;
#X connect 95 2 26 0;
#X connect 96 0 23 0;
#X connect 96 1 25 0;
#X connect 96 2 27 0;
#X connect 97 0 0 1;
#X connect 98 0 93 2;
#X connect 99 0 92 0;
#X connect 100 0 92 1;
#X connect 101 0 93 1;
#X connect 102 0 94 1;
#X connect 103 0 0 0;
#X connect 104 0 96 0;
#X connect 105 0 95 0;
#X connect 106 0 94 2;
#X connect 107 0 95 2;
#X connect 108 0 96 2;
#X connect 109 0 0 2;
#X connect 110 0 92 2;
#X connect 111 0 93 0;
#X connect 112 0 94 0;
#X connect 113 0 96 1;
#X connect 114 0 95 1;
#X connect 115 0 109 0;
#X connect 115 0 97 0;
#X connect 115 0 103 0;
#X connect 116 0 110 0;
#X connect 116 0 100 0;
#X connect 116 0 99 0;
#X connect 117 0 111 0;
#X connect 117 0 101 0;
#X connect 117 0 98 0;
#X connect 118 0 112 0;
#X connect 118 0 102 0;
#X connect 118 0 106 0;
#X connect 119 0 107 0;
#X connect 119 0 114 0;
#X connect 119 0 105 0;
#X connect 120 0 108 0;
#X connect 120 0 113 0;
#X connect 120 0 104 0;
