#N canvas 1145 667 450 300 10;
#X obj 88 124 moses;
#X obj 13 125 moses;
#X obj 55 126 f;
#X obj 133 125 f;
#X floatatom 115 179 5 0 0 0 - - -;
#X msg 40 91 1;
#X msg 115 90 0;
#X obj 40 58 bng 15 250 50 0 empty empty empty 17 7 0 10 -262144 -1
-1;
#X floatatom 13 180 5 0 0 0 - - -;
#X obj 13 159 * 1.01;
#X obj 115 158 * 0.99;
#X obj -69 240 i;
#X obj 40 32 loadbang;
#X obj -69 28 inlet;
#X obj -69 263 outlet;
#X text 62 55 reset;
#X obj 95 32 r reset;
#X obj -69 214 expr ($f1-$f2)*180/($f3-$f2);
#X connect 0 1 3 0;
#X connect 0 1 10 0;
#X connect 1 0 2 0;
#X connect 1 0 9 0;
#X connect 2 0 1 1;
#X connect 3 0 0 1;
#X connect 4 0 17 2;
#X connect 5 0 1 1;
#X connect 6 0 0 1;
#X connect 7 0 5 0;
#X connect 7 0 6 0;
#X connect 8 0 17 1;
#X connect 9 0 8 0;
#X connect 10 0 4 0;
#X connect 11 0 14 0;
#X connect 12 0 7 0;
#X connect 13 0 0 0;
#X connect 13 0 1 0;
#X connect 13 0 17 0;
#X connect 16 0 7 0;
#X connect 17 0 11 0;
