#N canvas 488 199 514 546 10;
#X obj 100 100 cnv 15 232 24 empty empty empty 20 12 0 14 -262144 -66577
0;
#X text 81 84 Inicializar;
#X obj 128 10 spigot;
#X obj 100 100 tgl 24 0 empty empty empty 17 7 0 10 -134080 -1 -1 0
1;
#X obj 187 -108 route 0 1;
#X obj 279 274 s arduino_msg;
#X obj 136 135 outlet;
#X obj 194 -21 delay 1;
#X msg 194 5 1;
#X msg 187 -51 0;
#X obj 370 276 print;
#X msg 340 -11 bang;
#X obj 279 211 pack \$1 f;
#X obj 127 100 tgl 24 0 empty empty entrada_dixital_\$1 32 12 1 14
-51072 -1 -1 0 1;
#X msg 279 241 pinMode \$1 input;
#X obj 260 169 t f b f;
#X obj 63 -26 r arduino_d\$1;
#X connect 2 0 13 0;
#X connect 3 0 4 0;
#X connect 4 0 9 0;
#X connect 4 1 15 0;
#X connect 7 0 8 0;
#X connect 8 0 2 1;
#X connect 9 0 2 1;
#X connect 12 0 14 0;
#X connect 13 0 6 0;
#X connect 14 0 5 0;
#X connect 14 0 10 0;
#X connect 15 0 7 0;
#X connect 15 1 12 0;
#X connect 15 2 12 1;
#X connect 16 0 2 0;
#X coords 0 -1 1 1 232 24 2 100 100;
