#N canvas 945 137 556 669 10;
#X declare -lib mrpeach;
#X obj 34 44 acelerometro;
#X obj 283 324 led_r;
#X obj 283 380 led_g;
#X obj 283 435 led_b;
#X floatatom 34 109 5 0 0 0 - - -;
#X floatatom 82 109 5 0 0 0 - - -;
#X floatatom 130 109 5 0 0 0 - - -;
#X obj 33 221 potenciometro_0;
#X obj 33 312 potenciometro_2;
#X obj 33 341 potenciometro_3;
#X obj 33 399 potenciometro_5;
#X obj 33 370 potenciometro_4;
#X obj 34 428 potenciometro_6;
#X obj 34 457 potenciometro_7;
#X obj 133 511 servo_6;
#X obj 133 566 servo_5;
#X obj 169 163 gem_rgb;
#X obj 33 163 modelo_3d;
#X obj 324 44 OSCdroid;
#X floatatom 324 114 5 0 0 0 - - -;
#X floatatom 372 114 5 0 0 0 - - -;
#X floatatom 420 114 5 0 0 0 - - -;
#X obj 33 283 potenciometro_1;
#X text 150 53 valores de -1 a 1;
#X floatatom 33 256 5 0 0 0 - - -;
#X text 79 256 valores de 0 a 1;
#X floatatom 283 353 5 0 0 0 - - -;
#X text 320 354 valores de 0 a 255;
#X floatatom 283 409 5 0 0 0 - - -;
#X text 320 410 valores de 0 a 255;
#X floatatom 283 464 5 0 0 0 - - -;
#X text 320 465 valores de 0 a 255;
#X floatatom 133 540 5 0 0 0 - - -;
#X text 169 540 valores de 0 a 1;
#X floatatom 133 597 5 0 0 0 - - -;
#X text 169 597 valores de 0 a 1;
#X text 83 643 Lembra activar os obxectos no toggle para poder utilizalos!
;
#X connect 0 0 4 0;
#X connect 0 1 5 0;
#X connect 0 2 6 0;
#X connect 1 0 26 0;
#X connect 2 0 28 0;
#X connect 3 0 30 0;
#X connect 7 0 24 0;
#X connect 14 0 32 0;
#X connect 15 0 34 0;
#X connect 18 0 19 0;
#X connect 18 1 20 0;
#X connect 18 2 21 0;
