#N canvas 8 168 748 836 10;
#X declare -lib mrpeach;
#X text 146 35 valores de -1 a 1;
#X obj 30 26 acelerometro;
#X floatatom 30 91 5 0 0 0 - - -;
#X floatatom 78 91 5 0 0 0 - - -;
#X floatatom 126 91 5 0 0 0 - - -;
#X text 146 35 valores de -1 a 1;
#X obj 379 72 normaliza;
#X obj 29 377 entrada_dixital 7;
#X obj 29 450 led_r 11;
#X obj 29 498 led_g 10;
#X obj 29 546 led_b 9;
#X floatatom 29 574 5 0 0 0 - - -;
#X text 66 575 valores de 0 a 255;
#X floatatom 29 526 5 0 0 0 - - -;
#X text 66 527 valores de 0 a 255;
#X floatatom 29 478 5 0 0 0 - - -;
#X text 66 479 valores de 0 a 255;
#X floatatom 29 350 5 0 0 0 - - -;
#X text 66 351 valores de 0 a 1;
#X obj 166 129 gem_rgb;
#X obj 30 129 modelo_3d;
#X obj 166 129 gem_rgb;
#X obj 30 129 modelo_3d;
#X obj 30 178 OSCdroid;
#X floatatom 30 248 5 0 0 0 - - -;
#X floatatom 78 248 5 0 0 0 - - -;
#X floatatom 126 248 5 0 0 0 - - -;
#N canvas 970 474 378 159 outros 0;
#X obj -86 59 route 0 1;
#X obj 33 54 spigot;
#X floatatom 15 27 5 0 0 0 - - -;
#X floatatom 41 79 5 0 0 0 - - -;
#X obj 64 28 tgl 15 0 empty empty empty 17 7 0 10 -262144 -1 -1 0 1
;
#X obj -87 32 tgl 15 0 empty empty empty 17 7 0 10 -262144 -1 -1 0
1;
#X obj -86 85 bng 15 250 50 0 empty empty empty 17 7 0 10 -262144 -1
-1;
#X obj -59 85 bng 15 250 50 0 empty empty empty 17 7 0 10 -262144 -1
-1;
#X obj 143 56 delay 1000;
#X obj 143 32 bng 15 250 50 0 empty empty empty 17 7 0 10 -262144 -1
-1;
#X obj 143 81 bng 15 250 50 0 empty empty empty 17 7 0 10 -262144 -1
-1;
#X connect 0 0 6 0;
#X connect 0 1 7 0;
#X connect 1 0 3 0;
#X connect 2 0 1 0;
#X connect 4 0 1 1;
#X connect 5 0 0 0;
#X connect 8 0 10 0;
#X connect 9 0 8 0;
#X restore 378 184 pd outros;
#X text 379 14 obxectos para filtrado;
#X text 23 773 Lembra activar os obxectos no toggle para poder utilizalos
e indicar mediante un parámetro o pin de arduino que vas utilizar
;
#X obj 379 44 inverte;
#X obj 414 761 servo 5;
#X obj 378 131 maiorque;
#X obj 379 101 pecha;
#X obj 29 322 entrada_analoxica 0;
#X obj 378 206 fai_bang;
#X obj 414 654 velocidad_servo;
#X floatatom 414 738 5 0 0 0 - - -;
#X text 450 738 valores de 0 a 1;
#X obj 419 588 servo 6;
#X obj 419 423 posiciones_servo;
#X floatatom 419 566 5 0 0 0 - - -;
#X text 455 566 valores de 0 a 1;
#X obj 422 403 hsl 128 15 0 1 0 0 empty empty empty -2 -8 0 10 -262144
-1 -1 0 0;
#X obj 419 264 metro_servo;
#X obj 419 307 line_servo;
#X obj 433 363 line_servo;
#X obj 433 341 delay 1000;
#X connect 1 0 2 0;
#X connect 1 1 3 0;
#X connect 1 2 4 0;
#X connect 8 0 15 0;
#X connect 9 0 13 0;
#X connect 10 0 11 0;
#X connect 23 0 24 0;
#X connect 23 1 25 0;
#X connect 23 2 26 0;
#X connect 34 0 17 0;
#X connect 36 0 37 0;
#X connect 37 0 31 0;
#X connect 40 0 41 0;
#X connect 41 0 39 0;
#X connect 43 0 40 0;
#X connect 44 0 45 0;
#X connect 44 0 47 0;
#X connect 45 0 43 0;
#X connect 46 0 43 0;
#X connect 47 0 46 0;
