#N canvas 103 183 656 750 10;
#X declare -lib mrpeach;
#X text 146 35 valores de -1 a 1;
#X obj 389 104 invierte;
#X obj 30 26 acelerometro;
#X floatatom 30 91 5 0 0 0 - - -;
#X floatatom 78 91 5 0 0 0 - - -;
#X floatatom 126 91 5 0 0 0 - - -;
#X text 146 35 valores de -1 a 1;
#X obj 388 142 normaliza;
#X obj 389 178 filtra;
#X obj 387 218 maior;
#X obj 29 322 entrada_analóxica 0;
#X obj 29 371 entrada_dixital 7;
#X obj 29 450 led_r 11;
#X obj 29 498 led_g 10;
#X obj 29 546 led_b 9;
#X floatatom 29 574 5 0 0 0 - - -;
#X text 66 575 valores de 0 a 255;
#X floatatom 29 526 5 0 0 0 - - -;
#X text 66 527 valores de 0 a 255;
#X floatatom 29 478 5 0 0 0 - - -;
#X text 66 479 valores de 0 a 255;
#X floatatom 29 350 5 0 0 0 - - -;
#X text 66 351 valores de 0 a 1;
#X obj 166 129 gem_rgb;
#X obj 30 129 modelo_3d;
#X obj 166 129 gem_rgb;
#X obj 30 129 modelo_3d;
#X obj 30 178 OSCdroid;
#X floatatom 30 248 5 0 0 0 - - -;
#X floatatom 78 248 5 0 0 0 - - -;
#X floatatom 126 248 5 0 0 0 - - -;
#X floatatom 27 666 5 0 0 0 - - -;
#X text 63 666 valores de 0 a 1;
#X obj 27 637 servo 6;
#N canvas 970 474 378 159 outros 0;
#X obj -86 59 route 0 1;
#X obj 33 54 spigot;
#X floatatom 15 27 5 0 0 0 - - -;
#X floatatom 41 79 5 0 0 0 - - -;
#X obj 64 28 tgl 15 0 empty empty empty 17 7 0 10 -262144 -1 -1 0 1
;
#X obj -87 32 tgl 15 0 empty empty empty 17 7 0 10 -262144 -1 -1 0
1;
#X obj -86 85 bng 15 250 50 0 empty empty empty 17 7 0 10 -262144 -1
-1;
#X obj -59 85 bng 15 250 50 0 empty empty empty 17 7 0 10 -262144 -1
-1;
#X obj 143 56 delay 1000;
#X obj 143 32 bng 15 250 50 0 empty empty empty 17 7 0 10 -262144 -1
-1;
#X obj 143 81 bng 15 250 50 0 empty empty empty 17 7 0 10 -262144 -1
-1;
#X connect 0 0 6 0;
#X connect 0 1 7 0;
#X connect 1 0 3 0;
#X connect 2 0 1 0;
#X connect 4 0 1 1;
#X connect 5 0 0 0;
#X connect 8 0 10 0;
#X connect 9 0 8 0;
#X restore 387 278 pd outros;
#X text 389 74 obxectos para filtrado;
#X text 26 698 Lembra activar os obxectos no toggle para poder utilizalos
e indicar mediante un parámetro o pin de arduino que vas utilizar
;
#X connect 2 0 3 0;
#X connect 2 1 4 0;
#X connect 2 2 5 0;
#X connect 10 0 21 0;
#X connect 12 0 19 0;
#X connect 13 0 17 0;
#X connect 14 0 15 0;
#X connect 27 0 28 0;
#X connect 27 1 29 0;
#X connect 27 2 30 0;
#X connect 33 0 31 0;
