#N canvas 412 562 147 139 10;
#X text 22 -65 valores de 0 a 1;
#X obj -15 -40 route 0 1;
#X msg 10 -16 bang;
#X obj -15 -65 inlet;
#X obj 10 43 outlet;
#X obj 10 10 bng 24 250 50 0 empty empty bang 30 12 1 12 -262144 -1
-1;
#X connect 1 1 2 0;
#X connect 2 0 5 0;
#X connect 3 0 1 0;
#X connect 5 0 4 0;
#X coords 0 -1 1 1 64 24 2 10 10;
