#N canvas 301 350 692 541 10;
#X obj 438 -17 gemhead;
#X obj 438 42 color;
#X msg 465 12 0 0 1;
#X obj 438 295 square;
#X obj 438 153 rotate;
#X floatatom 347 95 5 0 0 0 - - -;
#X obj 350 69 hsl 128 15 0 360 0 0 empty empty empty -2 -8 0 10 -262144
-1 -1 0 1;
#X floatatom 496 -98 5 0 0 0 - - -;
#X floatatom 537 -74 5 0 0 0 - - -;
#X floatatom 576 -50 5 0 0 0 - - -;
#X obj 496 -18 pack f f f;
#X obj 503 -42 bng 15 250 50 0 empty empty empty 17 7 0 10 -262144
-1 -1;
#X obj 543 38 tgl 15 0 empty empty empty 17 7 0 10 -262144 -1 -1 0
1;
#X obj 514 38 tgl 15 0 empty empty empty 17 7 0 10 -262144 -1 -1 0
1;
#X obj 486 38 tgl 15 0 empty empty empty 17 7 0 10 -262144 -1 -1 0
1;
#X obj 486 118 pack 0 0 0;
#X obj 494 90 bng 15 250 50 0 empty empty empty 17 7 0 10 -262144 -1
-1;
#X floatatom 471 267 5 0 0 0 - - -;
#X obj 474 242 hsl 128 15 0 4 0 0 empty empty empty -2 -8 0 10 -262144
-1 -1 12700 1;
#X obj 496 -187 inlet;
#X obj 537 -187 inlet;
#X obj 576 -187 inlet;
#X obj 496 -123 / 255;
#X obj 537 -100 / 255;
#X obj 576 -72 / 255;
#X msg 199 184 create \, 1 \, lighting 1;
#X msg 103 185 destroy \, reset;
#X obj 103 105 tgl 24 0 empty empty empty 17 7 0 10 -262144 -1 -1 0
1;
#X obj 103 147 route 0 1;
#X obj 30 270 gemwin;
#N canvas 87 154 247 179 Gem.init 0;
#X obj 59 46 loadbang;
#X msg 118 81 reset;
#X obj 118 113 outlet;
#X obj 59 65 t b b;
#X connect 0 0 3 0;
#X connect 1 0 2 0;
#X connect 3 1 1 0;
#X restore 30 186 pd Gem.init;
#X obj 471 195 loadbang;
#X msg 471 219 4;
#X text 129 108 ver xanela de GEM;
#X connect 0 0 1 0;
#X connect 1 0 4 0;
#X connect 4 0 3 0;
#X connect 5 0 4 1;
#X connect 6 0 5 0;
#X connect 7 0 10 0;
#X connect 8 0 10 1;
#X connect 8 0 11 0;
#X connect 9 0 10 2;
#X connect 9 0 11 0;
#X connect 10 0 2 0;
#X connect 10 0 1 1;
#X connect 11 0 10 0;
#X connect 12 0 15 2;
#X connect 12 0 16 0;
#X connect 13 0 15 1;
#X connect 13 0 16 0;
#X connect 14 0 15 0;
#X connect 15 0 4 2;
#X connect 16 0 15 0;
#X connect 17 0 3 1;
#X connect 18 0 17 0;
#X connect 19 0 22 0;
#X connect 20 0 23 0;
#X connect 21 0 24 0;
#X connect 22 0 7 0;
#X connect 23 0 8 0;
#X connect 24 0 9 0;
#X connect 25 0 29 0;
#X connect 26 0 29 0;
#X connect 27 0 28 0;
#X connect 28 0 26 0;
#X connect 28 1 25 0;
#X connect 30 0 29 0;
#X connect 31 0 32 0;
#X connect 32 0 18 0;
#X coords 0 -1 1 1 136 32 2 100 100;
