#N canvas 566 409 364 386 10;
#X obj 130 100 hsl 200 24 0 255 0 0 empty empty valor_G_~10 65 13 1
14 -4034 -1 -1 0 0;
#X text 79 80 Inicializar;
#X text 201 80 Deslizador;
#X obj 127 36 inlet;
#X obj -19 349 s arduino_msg;
#X obj 255 233 outlet;
#X obj 127 212 / 255;
#X obj 127 233 scalelog 0.005 1.005;
#X obj 127 254 - 0.005;
#X obj 100 100 tgl 24 0 empty empty empty 17 7 0 10 -262144 -1 -1 0
1;
#X obj 52 150 route 0 1;
#X obj 77 212 delay 1;
#X msg -19 212 pinMode 10 pwm;
#X msg 127 275 analog 10 \$1;
#X msg 77 239 1;
#X msg 52 260 0;
#X obj 127 150 spigot;
#X obj 255 209 i;
#X msg 17 284 analog 10 0;
#X connect 0 0 16 0;
#X connect 3 0 0 0;
#X connect 6 0 7 0;
#X connect 7 0 8 0;
#X connect 8 0 13 0;
#X connect 9 0 10 0;
#X connect 10 0 15 0;
#X connect 10 0 18 0;
#X connect 10 1 11 0;
#X connect 10 1 12 0;
#X connect 11 0 14 0;
#X connect 12 0 4 0;
#X connect 13 0 4 0;
#X connect 14 0 16 1;
#X connect 15 0 16 1;
#X connect 15 0 0 0;
#X connect 16 0 6 0;
#X connect 16 0 17 0;
#X connect 17 0 5 0;
#X connect 18 0 4 0;
#X coords 0 -1 1 1 232 24 2 100 100;
