#N canvas 154 278 387 556 10;
#X obj 100 100 cnv 15 232 24 empty empty empty 20 12 0 14 -262144 -66577
0;
#X obj 130 100 hsl 200 24 0 255 0 0 empty empty led_R_~\$1 65 13 1
14 -258113 -1 -1 0 0;
#X text 201 78 Deslizador;
#X obj 326 209 i;
#X obj 326 233 outlet;
#X obj 127 212 / 255;
#X obj 127 254 - 0.005;
#X obj 127 25 inlet;
#X obj 127 150 spigot;
#X obj 100 100 tgl 24 0 empty empty empty 17 7 0 10 -260129 -1 -1 0
1;
#X obj 52 150 route 0 1;
#X obj 160 52 delay 1;
#X msg 160 79 1;
#X msg 52 260 0;
#X obj 103 311 pack \$1 f;
#X msg 103 338 analog \$1 \$2;
#X obj 96 483 s arduino_msg;
#X obj 96 420 pack \$1 f;
#X obj 77 378 t f b f;
#X msg 96 450 pinMode \$1 pwm;
#X obj 127 283 t b f;
#X text 79 78 Inicializar;
#X obj 127 233 operaciones/scalelog 0.005 1.005;
#X connect 1 0 8 0;
#X connect 3 0 4 0;
#X connect 5 0 22 0;
#X connect 6 0 20 0;
#X connect 7 0 1 0;
#X connect 8 0 5 0;
#X connect 8 0 3 0;
#X connect 9 0 10 0;
#X connect 10 0 13 0;
#X connect 10 1 18 0;
#X connect 11 0 12 0;
#X connect 12 0 8 1;
#X connect 13 0 8 1;
#X connect 13 0 1 0;
#X connect 13 0 20 0;
#X connect 14 0 15 0;
#X connect 15 0 16 0;
#X connect 17 0 19 0;
#X connect 18 0 11 0;
#X connect 18 1 17 0;
#X connect 18 2 17 1;
#X connect 19 0 16 0;
#X connect 20 0 14 0;
#X connect 20 1 14 1;
#X connect 22 0 6 0;
#X coords 0 -1 1 1 232 24 2 100 100;
