#N canvas 1033 155 416 397 10;
#X obj -19 349 s arduino_msg;
#X msg -19 212 pinMode 11 pwm;
#X text 79 78 Inicializar;
#X msg 127 275 analog 11 \$1;
#X obj 130 100 hsl 200 24 0 255 0 0 empty empty valor_R_~11 65 13 1
14 -258113 -1 -1 0 0;
#X text 201 78 Deslizador;
#X obj 255 209 i;
#X obj 255 233 outlet;
#X obj 127 212 / 255;
#X obj 127 233 scalelog 0.005 1.005;
#X obj 127 254 - 0.005;
#X obj 127 25 inlet;
#X obj 127 150 spigot;
#X obj 100 100 tgl 24 0 empty empty empty 17 7 0 10 -262144 -1 -1 0
1;
#X obj 52 150 route 0 1;
#X obj 77 212 delay 1;
#X msg 77 239 1;
#X msg 52 260 0;
#X msg 7 286 analog 9 0;
#X connect 1 0 0 0;
#X connect 3 0 0 0;
#X connect 4 0 12 0;
#X connect 6 0 7 0;
#X connect 8 0 9 0;
#X connect 9 0 10 0;
#X connect 10 0 3 0;
#X connect 11 0 4 0;
#X connect 12 0 8 0;
#X connect 12 0 6 0;
#X connect 13 0 14 0;
#X connect 14 0 17 0;
#X connect 14 0 18 0;
#X connect 14 1 15 0;
#X connect 14 1 1 0;
#X connect 15 0 16 0;
#X connect 16 0 12 1;
#X connect 17 0 12 1;
#X connect 17 0 4 0;
#X connect 18 0 0 0;
#X coords 0 -1 1 1 232 24 2 100 100;
