#N canvas 284 241 762 483 10;
#X obj 160 100 hsl 128 24 100 5000 0 0 empty empty empty -2 -8 0 10
-228856 -1 -1 6200 0;
#X floatatom 294 108 5 0 0 0 - - -;
#X obj 130 296 line;
#X obj 129 241 t f b;
#X msg 165 264 0;
#X obj 129 215 f;
#X msg 130 264 1 \$1;
#X obj 100 100 bng 24 250 50 0 empty empty empty 17 7 0 10 -228856
-1 -1;
#X obj 92 46 inlet;
#X msg 92 67 bang;
#X obj 130 325 outlet;
#X obj 129 100 tgl 24 0 empty empty empty 17 7 0 10 -228856 -1 -1 0
1;
#X obj 198 296 line;
#X obj 197 241 t f b;
#X msg 198 264 0 \$1;
#X msg 233 264 1;
#X obj 197 216 f;
#X obj 129 163 gate 2;
#X obj 129 135 + 1;
#X msg 149 64 0;
#X obj 149 43 loadbang;
#X connect 0 0 1 0;
#X connect 1 0 5 1;
#X connect 1 0 16 1;
#X connect 2 0 10 0;
#X connect 3 0 6 0;
#X connect 3 1 4 0;
#X connect 4 0 2 0;
#X connect 5 0 3 0;
#X connect 6 0 2 0;
#X connect 7 0 17 1;
#X connect 8 0 9 0;
#X connect 9 0 7 0;
#X connect 11 0 18 0;
#X connect 12 0 10 0;
#X connect 13 0 14 0;
#X connect 13 1 15 0;
#X connect 14 0 12 0;
#X connect 15 0 12 0;
#X connect 16 0 13 0;
#X connect 17 0 5 0;
#X connect 17 1 16 0;
#X connect 18 0 17 0;
#X connect 19 0 11 0;
#X connect 20 0 19 0;
#X coords 0 -1 1 1 226 24 2 100 100;
