#N canvas 284 241 406 246 10;
#X obj 100 100 bng 24 250 50 0 empty empty empty 17 7 0 10 -204800
-1 -1;
#X obj 100 143 metro;
#X obj 159 100 hsl 128 24 100 5000 0 0 empty empty empty -2 -8 0 10
-204800 -1 -1 8500 0;
#X obj 128 100 tgl 24 0 empty empty empty 17 7 0 10 -204800 -1 -1 0
1;
#X floatatom 293 108 5 0 0 0 - - -;
#X obj 56 144 outlet;
#X connect 0 0 5 0;
#X connect 1 0 0 0;
#X connect 2 0 1 1;
#X connect 2 0 4 0;
#X connect 3 0 1 0;
#X coords 0 -1 1 1 226 24 2 100 100;
