#N canvas 379 235 690 548 10;
#X obj 40 -2 gemhead;
#X obj 192 179 translateXYZ;
#X obj 192 239 rotateXYZ;
#X obj 192 318 scaleXYZ;
#X obj 215 148 / 100;
#X obj 260 148 / 100;
#X obj 306 148 / 100;
#X obj 207 289 / 100;
#X obj 252 289 / 100;
#X obj 298 289 / 100;
#X obj 40 51 separator;
#X obj 192 60 separator;
#X obj 40 80 rotateXYZ -45 45 0;
#X obj 40 109 world_light;
#X obj 192 432 diffuseRGB 0.5 0.5 0.5;
#X obj 229 505 model;
#X obj 543 205 bng 24 250 50 0 empty empty empty 0 -6 0 8 -262144 -1
-1;
#X obj 437 359 openpanel;
#X msg 437 380 open \$1;
#X obj 192 462 alpha;
#X msg 436 413 smooth 1;
#X msg 345 95 200;
#X obj 345 61 loadbang;
#X obj 224 338 r modelo_3d_r;
#X obj 224 401 / 255;
#X obj 268 400 / 255;
#X obj 313 401 / 255;
#X obj 268 358 r modelo_3d_g;
#X obj 313 378 r modelo_3d_b;
#X obj 207 259 r modelo_3d_scale;
#X obj 345 118 min 200;
#X obj 215 98 r modelo_3d_x;
#X obj 260 118 r modelo_3d_y;
#X obj 376 95 r modelo_3d_z;
#X obj 275 184 inlet;
#X text 573 208 Abrir modelo 3D;
#X obj 164 -6 r modelo_3d_xl;
#X obj 179 14 r modelo_3d_yl;
#X obj 192 34 r modelo_3d_zl;
#X obj 275 204 * 360;
#X obj 312 204 * 360;
#X obj 349 204 * 360;
#X obj 312 184 inlet;
#X obj 349 184 inlet;
#X connect 0 0 11 0;
#X connect 0 0 10 0;
#X connect 1 0 2 0;
#X connect 2 0 3 0;
#X connect 3 0 14 0;
#X connect 4 0 1 1;
#X connect 5 0 1 2;
#X connect 6 0 1 3;
#X connect 7 0 3 1;
#X connect 8 0 3 2;
#X connect 9 0 3 3;
#X connect 10 0 12 0;
#X connect 11 0 1 0;
#X connect 12 0 13 0;
#X connect 14 0 19 0;
#X connect 16 0 17 0;
#X connect 17 0 18 0;
#X connect 18 0 15 0;
#X connect 19 0 15 0;
#X connect 20 0 15 0;
#X connect 21 0 30 0;
#X connect 22 0 21 0;
#X connect 22 0 20 0;
#X connect 23 0 24 0;
#X connect 24 0 14 1;
#X connect 25 0 14 2;
#X connect 26 0 14 3;
#X connect 27 0 25 0;
#X connect 28 0 26 0;
#X connect 29 0 9 0;
#X connect 29 0 8 0;
#X connect 29 0 7 0;
#X connect 30 0 6 0;
#X connect 31 0 4 0;
#X connect 32 0 5 0;
#X connect 33 0 30 0;
#X connect 34 0 39 0;
#X connect 36 0 12 1;
#X connect 37 0 12 2;
#X connect 38 0 12 3;
#X connect 39 0 2 1;
#X connect 40 0 2 2;
#X connect 41 0 2 3;
#X connect 42 0 40 0;
#X connect 43 0 41 0;
#X coords 0 -1 1 1 132 32 2 540 200;
