#N canvas 146 430 303 330 10;
#X obj 75 224 max;
#X obj 4 224 min;
#X obj 100 224 f;
#X obj 29 224 f;
#X msg 100 197 0;
#X msg 29 197 1;
#X msg 100 143 bang;
#X obj -66 261 expr ($f1-$f2)/($f3-$f2);
#X obj 4 108 inlet;
#X obj -66 285 outlet;
#X obj 100 100 bng 24 250 50 0 empty empty normaliza 30 12 1 12 -262144
-1 -1;
#X obj 139 143 loadbang;
#X connect 0 0 2 0;
#X connect 0 0 7 2;
#X connect 1 0 3 0;
#X connect 1 0 7 1;
#X connect 2 0 0 1;
#X connect 3 0 1 1;
#X connect 4 0 2 0;
#X connect 5 0 3 0;
#X connect 6 0 4 0;
#X connect 6 0 5 0;
#X connect 7 0 9 0;
#X connect 8 0 1 0;
#X connect 8 0 0 0;
#X connect 8 0 7 0;
#X connect 10 0 6 0;
#X connect 11 0 4 0;
#X connect 11 0 5 0;
#X coords 0 -1 1 1 90 24 2 100 100;
