#N canvas 418 373 918 623 10;
#X declare -lib mrpeach;
#X obj 233 123 unpackOSC;
#X obj 360 123 import mrpeach;
#X obj 360 99 loadbang;
#X obj 233 100 udpreceive 12002;
#X obj 233 146 routeOSC /oscdroid;
#X obj 233 173 routeOSC /orientation;
#X obj 233 201 unpack f f f;
#X obj 233 255 outlet;
#X obj 267 282 outlet;
#X obj 302 308 outlet;
#X text 110 127 x;
#X text 148 127 y;
#X text 181 127 z;
#X text 126 105 OSCdroid;
#X connect 0 0 4 0;
#X connect 2 0 1 0;
#X connect 3 0 0 0;
#X connect 4 0 5 0;
#X connect 5 0 6 0;
#X connect 6 0 7 0;
#X connect 6 1 8 0;
#X connect 6 2 9 0;
#X coords 0 -1 1 1 103 46 2 100 100;
