#N canvas 550 463 477 365 10;
#X text 78 85 Inicializar;
#X obj 130 100 hsl 200 24 0 1 0 0 empty empty potenciometro_3 46 13
1 14 -262144 -1 -1 0 0;
#X text 190 85 Deslizador;
#X obj 127 22 spigot;
#X obj 100 100 tgl 24 0 empty empty empty 17 7 0 10 -262144 -1 -1 0
1;
#X obj 60 157 route 0 1;
#X obj 60 291 s arduino_msg;
#X obj 127 158 outlet;
#X obj 127 43 average 10;
#X obj 127 -5 r arduino_a3;
#X msg 60 230 analogIns 3 0;
#X msg 157 231 analogIns 3 1;
#X obj 355 230 delay 1;
#X msg 291 231 reset 10;
#X msg 355 256 1;
#X msg 30 230 0;
#X connect 1 0 7 0;
#X connect 3 0 8 0;
#X connect 4 0 5 0;
#X connect 5 0 10 0;
#X connect 5 0 15 0;
#X connect 5 1 11 0;
#X connect 5 1 13 0;
#X connect 5 1 12 0;
#X connect 8 0 1 0;
#X connect 9 0 3 0;
#X connect 10 0 6 0;
#X connect 11 0 6 0;
#X connect 12 0 14 0;
#X connect 13 0 8 0;
#X connect 14 0 3 1;
#X connect 15 0 3 1;
#X coords 0 -1 1 1 232 24 2 100 100;
