#N canvas 976 167 477 365 10;
#X text 77 82 Inicializar;
#X obj 130 100 hsl 200 24 0 1 0 0 empty empty potenciometro_1 46 13
1 14 -262144 -1 -1 0 0;
#X text 188 82 Deslizador;
#X obj 127 14 spigot;
#X obj 100 100 tgl 24 0 empty empty empty 17 7 0 10 -262144 -1 -1 0
1;
#X obj 60 157 route 0 1;
#X obj 60 286 s arduino_msg;
#X obj 127 158 outlet;
#X obj 127 35 average 10;
#X obj 127 -8 r arduino_a1;
#X msg 157 226 analogIns 1 1;
#X msg 60 225 analogIns 1 0;
#X obj 353 224 delay 1;
#X msg 289 225 reset 10;
#X msg 353 251 1;
#X msg 30 225 0;
#X connect 1 0 7 0;
#X connect 3 0 8 0;
#X connect 4 0 5 0;
#X connect 5 0 11 0;
#X connect 5 0 15 0;
#X connect 5 1 10 0;
#X connect 5 1 13 0;
#X connect 5 1 12 0;
#X connect 8 0 1 0;
#X connect 9 0 3 0;
#X connect 10 0 6 0;
#X connect 11 0 6 0;
#X connect 12 0 14 0;
#X connect 13 0 8 0;
#X connect 14 0 3 1;
#X connect 15 0 3 1;
#X coords 0 -1 1 1 232 24 2 100 100;
