#N canvas 371 582 477 365 10;
#X text 78 82 Inicializar;
#X obj 130 100 hsl 200 24 0 1 0 0 empty empty potenciometro_5 46 13
1 14 -262144 -1 -1 0 0;
#X text 190 82 Deslizador;
#X obj 127 18 spigot;
#X obj 100 100 tgl 24 0 empty empty empty 17 7 0 10 -262144 -1 -1 0
1;
#X obj 60 157 route 0 1;
#X obj 60 288 s arduino_msg;
#X obj 127 158 outlet;
#X obj 127 39 average 10;
#X obj 127 -9 r arduino_a5;
#X msg 60 227 analogIns 5 0;
#X msg 157 228 analogIns 5 1;
#X obj 354 227 delay 1;
#X msg 290 228 reset 10;
#X msg 354 252 1;
#X msg 26 227 0;
#X connect 1 0 7 0;
#X connect 3 0 8 0;
#X connect 4 0 5 0;
#X connect 5 0 10 0;
#X connect 5 0 15 0;
#X connect 5 1 11 0;
#X connect 5 1 13 0;
#X connect 5 1 12 0;
#X connect 8 0 1 0;
#X connect 9 0 3 0;
#X connect 10 0 6 0;
#X connect 11 0 6 0;
#X connect 12 0 14 0;
#X connect 13 0 8 0;
#X connect 14 0 3 1;
#X connect 15 0 3 1;
#X coords 0 -1 1 1 232 24 2 100 100;
