#N canvas 183 468 410 310 10;
#X obj 135 157 f;
#X obj 135 180 outlet;
#X obj 100 100 tgl 22 0 empty empty empty 17 7 0 10 -261234 -1 -1 0
1;
#X floatatom 150 103 5 0 0 0 - - -;
#X obj 148 78 average 20;
#X obj 179 156 f;
#X obj 179 179 outlet;
#X floatatom 187 103 5 0 0 0 - - -;
#X obj 217 77 average 20;
#X obj 224 155 f;
#X obj 224 178 outlet;
#X floatatom 223 103 5 0 0 0 - - -;
#X obj 286 76 average 20;
#X obj 100 203 route 0 1;
#X obj 132 238 delay 1;
#X obj 122 100 bng 22 250 50 0 empty empty empty 17 7 0 10 -262144
-1 -1;
#X msg 184 237 reset 20;
#X obj 148 54 spigot;
#X obj 217 53 spigot;
#X obj 286 52 spigot;
#X obj 148 30 r acx;
#X obj 217 29 r acy;
#X obj 286 28 r acz;
#X msg 100 54 0;
#X obj 122 127 t b b;
#X msg 132 264 1;
#X msg 100 238 0;
#X obj 163 7 inlet;
#X obj 234 6 inlet;
#X obj 302 6 inlet;
#X connect 0 0 1 0;
#X connect 2 0 13 0;
#X connect 3 0 0 1;
#X connect 4 0 3 0;
#X connect 5 0 6 0;
#X connect 7 0 5 1;
#X connect 8 0 7 0;
#X connect 9 0 10 0;
#X connect 11 0 9 1;
#X connect 12 0 11 0;
#X connect 13 0 26 0;
#X connect 13 1 14 0;
#X connect 13 1 16 0;
#X connect 14 0 25 0;
#X connect 15 0 24 0;
#X connect 16 0 12 0;
#X connect 16 0 8 0;
#X connect 16 0 4 0;
#X connect 17 0 4 0;
#X connect 18 0 8 0;
#X connect 19 0 12 0;
#X connect 20 0 17 0;
#X connect 21 0 18 0;
#X connect 22 0 19 0;
#X connect 23 0 2 0;
#X connect 24 0 0 0;
#X connect 24 0 5 0;
#X connect 24 0 9 0;
#X connect 24 1 23 0;
#X connect 25 0 19 1;
#X connect 25 0 18 1;
#X connect 25 0 17 1;
#X connect 26 0 17 1;
#X connect 26 0 18 1;
#X connect 26 0 19 1;
#X connect 27 0 0 0;
#X connect 27 0 3 0;
#X connect 28 0 5 0;
#X connect 28 0 7 0;
#X connect 29 0 9 0;
#X connect 29 0 11 0;
#X coords 0 -1 1 1 160 22 2 100 100;
