#N canvas 1205 54 411 594 10;
#X obj 101 100 cnv 15 232 24 empty empty empty 20 12 0 14 -262144 -66577
0;
#X obj 130 100 hsl 200 24 0 1 0 0 empty empty servo_~\$1 65 13 1 14
-99865 -1 -1 0 0;
#X text 201 78 Deslizador;
#X obj 165 283 outlet;
#X obj 127 25 inlet;
#X obj 127 150 spigot;
#X obj 100 100 tgl 24 0 empty empty empty 17 7 0 10 -191407 -1 -1 0
1;
#X obj 52 150 route 0 1;
#X obj 160 52 delay 1;
#X msg 160 79 1;
#X msg 52 260 0;
#X obj 103 311 pack \$1 f;
#X msg 103 338 analog \$1 \$2;
#X obj 96 483 s arduino_msg;
#X obj 96 420 pack \$1 f;
#X obj 77 378 t f b f;
#X obj 127 283 t b f;
#X text 79 78 Inicializar;
#X msg 96 450 pinMode \$1 servo;
#X connect 1 0 5 0;
#X connect 4 0 1 0;
#X connect 5 0 3 0;
#X connect 5 0 16 0;
#X connect 6 0 7 0;
#X connect 7 0 10 0;
#X connect 7 1 15 0;
#X connect 8 0 9 0;
#X connect 9 0 5 1;
#X connect 10 0 5 1;
#X connect 10 0 1 0;
#X connect 10 0 16 0;
#X connect 11 0 12 0;
#X connect 12 0 13 0;
#X connect 14 0 18 0;
#X connect 15 0 8 0;
#X connect 15 1 14 0;
#X connect 15 2 14 1;
#X connect 16 0 11 0;
#X connect 16 1 11 1;
#X connect 18 0 13 0;
#X coords 0 -1 1 1 232 24 2 100 100;
