#N canvas 982 173 359 365 10;
#X obj 25 307 s arduino_msg;
#X text 81 80 Inicializar;
#X obj 130 100 hsl 200 24 0 1 0 0 empty empty servo_~6 70 13 1 14 -128992
-1 -1 0 0;
#X text 196 80 Deslizador;
#X obj 127 35 inlet;
#X obj 207 262 outlet;
#X obj 127 179 spigot;
#X obj 100 100 tgl 24 0 empty empty empty 17 7 0 10 -262144 -1 -1 0
1;
#X obj 53 142 route 0 1;
#X obj 78 179 delay 1;
#X msg 78 206 1;
#X msg 53 234 0;
#X msg 25 262 pinMode 5 servo;
#X msg 127 262 analog 5 \$1;
#X connect 2 0 6 0;
#X connect 4 0 2 0;
#X connect 6 0 13 0;
#X connect 6 0 5 0;
#X connect 7 0 8 0;
#X connect 8 0 11 0;
#X connect 8 1 9 0;
#X connect 8 1 12 0;
#X connect 9 0 10 0;
#X connect 10 0 6 1;
#X connect 11 0 6 1;
#X connect 12 0 0 0;
#X connect 13 0 0 0;
#X coords 0 -1 1 1 232 24 2 100 100;
