#N canvas 822 461 187 249 10;
#X obj 45 192 outlet;
#X obj 45 120 atan2;
#X obj 45 169 rad2deg;
#X obj 45 146 +;
#X obj 90 97 loadbang;
#X obj 33 70 * -1;
#X obj 72 71 * -1;
#X obj 72 42 - 90;
#X obj 72 15 inlet;
#X obj 33 42 - 90;
#X obj 33 15 inlet;
#X obj 90 120 pi;
#X connect 1 0 3 0;
#X connect 2 0 0 0;
#X connect 3 0 2 0;
#X connect 4 0 11 0;
#X connect 5 0 1 0;
#X connect 6 0 1 1;
#X connect 7 0 6 0;
#X connect 8 0 7 0;
#X connect 9 0 5 0;
#X connect 10 0 9 0;
#X connect 11 0 3 1;
