#N canvas 992 286 392 226 10;
#X obj 23 150 exp;
#X obj 23 102 *;
#X obj 23 125 +;
#X obj 101 82 log;
#X obj 197 79 log;
#X obj 126 118 t b f;
#X obj 126 140 -;
#X obj 23 178 outlet;
#X obj 23 14 inlet;
#X obj 101 18 inlet;
#X obj 197 19 inlet;
#X obj 259 19 loadbang;
#X obj 120 57 \$1;
#X obj 216 54 \$2;
#X msg 222 171 version 0.0.1;
#X connect 0 0 7 0;
#X connect 1 0 2 0;
#X connect 2 0 0 0;
#X connect 3 0 2 1;
#X connect 3 0 5 0;
#X connect 4 0 6 0;
#X connect 5 0 6 0;
#X connect 5 1 6 1;
#X connect 6 0 1 1;
#X connect 8 0 1 0;
#X connect 9 0 3 0;
#X connect 10 0 4 0;
#X connect 11 0 13 0;
#X connect 11 0 12 0;
#X connect 12 0 3 0;
#X connect 13 0 4 0;
